<svg xmlns="http://www.w3.org/2000/svg" version="1.1" xmlns:xlink="http://www.w3.org/1999/xlink" xmlns:svgjs="http://svgjs.dev/svgjs" width="128" height="128" viewBox="0 0 128 128"><g transform="matrix(0.8046875,0,0,0.8046875,12.512228721082515,2.753087129934208)"><svg viewBox="0 0 79 95" data-background-color="#dedede" preserveAspectRatio="xMidYMid meet" height="153" width="128" xmlns="http://www.w3.org/2000/svg" xmlns:xlink="http://www.w3.org/1999/xlink"><g id="tight-bounds" transform="matrix(1,0,0,1,-0.009379310344840519,-0.24049999999999727)"><svg viewBox="0 0 79.01875862068965 95.481" height="95.481" width="79.01875862068965"><g><svg viewBox="0 0 79.01875862068965 95.481" height="95.481" width="79.01875862068965"><g><svg viewBox="0 0 79.01875862068965 95.481" height="95.481" width="79.01875862068965"><g id="textblocktransform"><svg viewBox="0 0 79.01875862068965 95.481" height="95.481" width="79.01875862068965" id="textblock"><g><svg viewBox="0 0 79.01875862068965 95.481" height="95.481" width="79.01875862068965"><g><svg viewBox="0 0 79.01875862068965 95.481" height="95.481" width="79.01875862068965"><g><svg xmlns="http://www.w3.org/2000/svg" xmlns:xlink="http://www.w3.org/1999/xlink" version="1.1" x="0" y="0" viewBox="8 3 48 58" style="enable-background:new 0 0 64 64;" xml:space="preserve" height="95.481" width="79.01875862068965" class="icon-icon-0" data-fill-palette-color="accent" id="icon-0"><g fill="#374151" data-fill-palette-color="accent"><polygon points="25.278,42.364 26.447,48.5 30.431,45.845 26.671,42.085  " fill="#374151" data-fill-palette-color="accent"></polygon><path d="M46 9h-6V3H18v34h28V9zM20 5h18v18H20V5zM44 35H20v-2h24V35zM44 31H20v-2h24V31zM44 27H20v-2h24V27z" fill="#374151" data-fill-palette-color="accent"></path><polygon points="36,40.586 36,39 28,39 28,40.586 32,44.586  " fill="#374151" data-fill-palette-color="accent"></polygon><polygon points="33.219,51 33.859,48.441 32,47.202 30.141,48.441 30.781,51  " fill="#374151" data-fill-palette-color="accent"></polygon><path d="M29 17c-2.414 0-4.434 1.721-4.899 4h9.798C33.434 18.721 31.414 17 29 17z" fill="#374151" data-fill-palette-color="accent"></path><circle cx="29" cy="13" r="2.0" fill="#374151" data-fill-palette-color="accent"></circle><path d="M22 21h0.08c0.341-2.368 1.867-4.352 3.96-5.334C25.4 14.957 25 14.028 25 13c0-2.206 1.794-4 4-4s4 1.794 4 4c0 1.028-0.4 1.957-1.04 2.666 2.093 0.982 3.619 2.966 3.96 5.334H36V7H22V21z" fill="#374151" data-fill-palette-color="accent"></path><polygon points="42,3 42,7 46,7  " fill="#374151" data-fill-palette-color="accent"></polygon><polygon points="35.025,52.025 35.976,56.781 37.147,50.633 35.626,49.619  " fill="#374151" data-fill-palette-color="accent"></polygon><polygon points="39.777,51.493 42.142,50.312 43.871,43.394 40.684,42.756 37.209,61 38.341,61 40.931,54.955  " fill="#374151" data-fill-palette-color="accent"></polygon><polygon points="30.82,53 29.22,61 34.78,61 33.18,53  " fill="#374151" data-fill-palette-color="accent"></polygon><path d="M51.98 45.016l-6.147-1.229-1.975 7.902-1.636 0.818 0.847 2.538L40.516 61H48V50h2v11h6V49.919C56 47.544 54.31 45.482 51.98 45.016z" fill="#374151" data-fill-palette-color="accent"></path><path d="M21.777 52.507l-1.636-0.818-1.975-7.902-6.147 1.229C9.69 45.482 8 47.544 8 49.919V61h6V50h2v11h7.484l-2.553-5.955L21.777 52.507z" fill="#374151" data-fill-palette-color="accent"></path><polygon points="38.722,42.364 37.329,42.085 33.569,45.845 37.553,48.5  " fill="#374151" data-fill-palette-color="accent"></polygon><polygon points="20.129,43.394 21.858,50.312 24.223,51.493 23.069,54.955 25.659,61 26.791,61 23.316,42.756  " fill="#374151" data-fill-palette-color="accent"></polygon><polygon points="26.853,50.633 28.024,56.781 28.975,52.025 28.374,49.619  " fill="#374151" data-fill-palette-color="accent"></polygon></g></svg></g></svg></g></svg></g></svg></g></svg></g></svg></g><defs></defs></svg><rect width="79.01875862068965" height="95.481" fill="none" stroke="none" visibility="hidden"></rect></g></svg></g></svg>