<svg xmlns="http://www.w3.org/2000/svg" version="1.1" xmlns:xlink="http://www.w3.org/1999/xlink" xmlns:svgjs="http://svgjs.dev/svgjs" width="1000" height="108" viewBox="0 0 1000 108"><g transform="matrix(1,0,0,1,-0.6060498038545461,0.6056157364905204)"><svg viewBox="0 0 396 43" data-background-color="#dedede" preserveAspectRatio="xMidYMid meet" height="108" width="1000" xmlns="http://www.w3.org/2000/svg" xmlns:xlink="http://www.w3.org/1999/xlink"><g id="tight-bounds" transform="matrix(1,0,0,1,0.2399957223263982,-0.24112478397307768)"><svg viewBox="0 0 395.52 43.48224956794614" height="43.48224956794614" width="395.52"><g><svg viewBox="0 0 466.4388675678896 51.27885125348188" height="43.48224956794614" width="395.52"><g><rect width="4.60137286150596" height="51.27885125348188" x="54.27201601134184" y="0" fill="#000000" opacity="1" stroke-width="0" stroke="transparent" fill-opacity="1" class="rect-o-0" data-fill-palette-color="primary" rx="1%" id="o-0" data-palette-color="#374151"></rect></g><g transform="matrix(1,0,0,1,70.91886756788958,0.12755933147631993)"><svg viewBox="0 0 395.52 51.02373259052924" height="51.02373259052924" width="395.52"><g id="textblocktransform"><svg viewBox="0 0 395.52 51.02373259052924" height="51.02373259052924" width="395.52" id="textblock"><g><svg viewBox="0 0 395.52 51.02373259052924" height="51.02373259052924" width="395.52"><g transform="matrix(1,0,0,1,0,0)"><svg width="395.52" viewBox="-0.10000000149011612 -36.349998474121094 287.17999267578125 37.04999923706055" height="51.02373259052924" data-palette-color="#374151"><path d="M11.95 0.7L11.95 0.7Q-0.1 0.7-0.1-8.05L-0.1-8.05Q-0.1-9.4 0.2-10.95L0.2-10.95 0.85-14.65 9.85-14.65 9.55-13Q9.35-11.75 9.35-10.45 9.35-9.15 10-8.3L10-8.3Q11-7.05 13.3-7.05 15.6-7.05 17.03-8.3 18.45-9.55 19.05-12.9L19.05-12.9 23.15-36.05 32.1-36.05 27.9-12.2Q26.75-5.55 22.9-2.43 19.05 0.7 11.95 0.7ZM52-36.35L52-36.35Q64.05-36.35 64.05-26.5L64.05-26.5Q64.05-24.85 63.7-22.95L63.7-22.95 61.95-12.95Q60.75-6 56.75-2.65 52.75 0.7 45.5 0.7 38.25 0.7 35.4-2.65L35.4-2.65Q33.45-4.95 33.45-9L33.45-9Q33.45-10.8 33.85-12.95L33.85-12.95 35.6-22.95Q37.95-36.35 52-36.35ZM46.85-7.05L46.85-7.05Q49.35-7.05 50.85-8.35 52.35-9.65 52.95-13.15L52.95-13.15 54.65-22.75Q54.8-23.75 54.8-24.55L54.8-24.55Q54.8-28.6 50.7-28.6L50.7-28.6Q45.55-28.5 44.55-22.75L44.55-22.75 42.85-13.15Q42.65-11.9 42.65-10.55L42.65-10.55Q42.65-7.05 46.85-7.05ZM72.09-36L86.59-36Q92.3-36 94.7-33.5L94.7-33.5Q96.5-31.6 96.5-28.7L96.5-28.7Q96.5-27.7 96.3-26.6L96.3-26.6 95.84-24.2Q95.3-21.35 93.72-19.75 92.15-18.15 90.95-18.15L90.95-18.15 90.9-17.75Q92.3-17.75 93.75-16.2 95.2-14.65 95.2-12.55L95.2-12.55Q95.2-11.7 95-10.75L95-10.75 94.7-9.2Q93.9-4.9 90.87-2.45 87.84 0 82.45 0L82.45 0 65.75 0 72.09-36ZM82.09-14.7L82.09-14.7 77.34-14.7 76.15-7.8 80.9-7.8Q81-7.8 81.09-7.8L81.09-7.8Q83.4-7.8 84.75-8.88 86.09-9.95 86.09-11.5L86.09-11.5Q86.09-14.7 82.09-14.7ZM83.45-28.2L83.45-28.2 79.7-28.2 78.4-20.75 82.09-20.75Q86.9-20.75 86.9-24.95L86.9-24.95Q86.9-26.4 86.02-27.3 85.15-28.2 83.45-28.2ZM108.14-10.25L108.14-10.25Q108.14-6.8 113.12-6.8 118.09-6.8 118.09-9.9L118.09-9.9Q118.09-11.55 116.39-12.6 114.69-13.65 112.27-14.35 109.84-15.05 107.42-15.98 104.99-16.9 103.29-18.88 101.59-20.85 101.59-23.8L101.59-23.8Q101.59-36.35 117.74-36.35L117.74-36.35Q123.64-36.35 126.67-34.13 129.69-31.9 129.69-27.95L129.69-27.95Q129.69-26.5 129.32-25.18 128.94-23.85 128.54-23.3L128.54-23.3 128.14-22.7 119.29-22.7Q120.39-23.85 120.39-25.6L120.39-25.6Q120.39-28.85 116.14-28.85L116.14-28.85Q110.79-28.85 110.79-25.45L110.79-25.45Q110.79-23.75 112.49-22.75 114.19-21.75 116.62-21.18 119.04-20.6 121.49-19.75 123.94-18.9 125.64-16.93 127.34-14.95 127.34-11.8L127.34-11.8Q127.34-5.45 123.54-2.38 119.74 0.7 111.84 0.7 103.94 0.7 101.04-2.1L101.04-2.1Q98.89-4.2 98.89-7.9L98.89-7.9Q98.89-9.3 99.19-10.95L99.19-10.95 99.34-11.75 108.34-11.75 108.24-11.15Q108.14-10.65 108.14-10.25ZM157.49-7.8L156.09 0 130.99 0 137.34-36 162.44-36 161.04-28.2 144.94-28.2 143.79-21.45 157.09-21.45 155.69-13.65 142.39-13.65 141.39-7.8 157.49-7.8ZM188.34-7.8L186.94 0 161.84 0 168.19-36 193.29-36 191.89-28.2 175.79-28.2 174.64-21.45 187.94-21.45 186.54-13.65 173.24-13.65 172.24-7.8 188.34-7.8ZM218.09-36L227.59-36 216.14-17.85 221.24 0 211.74 0 207.99-13.2 204.04-13.2 201.69 0 192.69 0 199.04-36 208.04-36 205.39-21 208.59-21 218.09-36ZM251.98-7.8L250.58 0 225.48 0 231.83-36 256.93-36 255.53-28.2 239.43-28.2 238.28-21.45 251.58-21.45 250.18-13.65 236.88-13.65 235.88-7.8 251.98-7.8ZM262.68-36L277.18-36Q282.88-36 285.28-33.5L285.28-33.5Q287.08-31.6 287.08-28.7L287.08-28.7Q287.08-27.7 286.88-26.6L286.88-26.6 286.18-22.7Q285.58-19.45 284.11-17.45 282.63-15.45 280.83-14.6L280.83-14.6 285.38 0 275.28 0 271.08-13.45 267.98-13.45 265.93 0 256.33 0 262.68-36ZM274.03-28.2L274.03-28.2 270.28-28.2 268.98-19.5 272.48-19.5Q275.13-19.5 276.28-20.78 277.43-22.05 277.43-24.15L277.43-24.15Q277.43-28.2 274.03-28.2Z" opacity="1" transform="matrix(1,0,0,1,0,0)" fill="#000000" class="wordmark-text-0" data-fill-palette-color="primary" id="text-0"></path></svg></g></svg></g></svg></g></svg></g><g transform="matrix(1,0,0,1,0,0.12755933147631993)"><svg viewBox="0 0 42.22653731630006 51.02373259052924" height="51.02373259052924" width="42.22653731630006"><g><svg xmlns="http://www.w3.org/2000/svg" xmlns:xlink="http://www.w3.org/1999/xlink" version="1.1" x="0" y="0" viewBox="8 3 48 58" style="enable-background:new 0 0 64 64;" xml:space="preserve" height="51.02373259052924" width="42.22653731630006" class="icon-icon-0" data-fill-palette-color="accent" id="icon-0"><g fill="#374151" data-fill-palette-color="accent"><polygon points="25.278,42.364 26.447,48.5 30.431,45.845 26.671,42.085  " fill="#000000" data-fill-palette-color="accent"></polygon><path d="M46 9h-6V3H18v34h28V9zM20 5h18v18H20V5zM44 35H20v-2h24V35zM44 31H20v-2h24V31zM44 27H20v-2h24V27z" fill="#000000" data-fill-palette-color="accent"></path><polygon points="36,40.586 36,39 28,39 28,40.586 32,44.586  " fill="#000000" data-fill-palette-color="accent"></polygon><polygon points="33.219,51 33.859,48.441 32,47.202 30.141,48.441 30.781,51  " fill="#000000" data-fill-palette-color="accent"></polygon><path d="M29 17c-2.414 0-4.434 1.721-4.899 4h9.798C33.434 18.721 31.414 17 29 17z" fill="#000000" data-fill-palette-color="accent"></path><circle cx="29" cy="13" r="2.0" fill="#000000" data-fill-palette-color="accent"></circle><path d="M22 21h0.08c0.341-2.368 1.867-4.352 3.96-5.334C25.4 14.957 25 14.028 25 13c0-2.206 1.794-4 4-4s4 1.794 4 4c0 1.028-0.4 1.957-1.04 2.666 2.093 0.982 3.619 2.966 3.96 5.334H36V7H22V21z" fill="#000000" data-fill-palette-color="accent"></path><polygon points="42,3 42,7 46,7  " fill="#000000" data-fill-palette-color="accent"></polygon><polygon points="35.025,52.025 35.976,56.781 37.147,50.633 35.626,49.619  " fill="#000000" data-fill-palette-color="accent"></polygon><polygon points="39.777,51.493 42.142,50.312 43.871,43.394 40.684,42.756 37.209,61 38.341,61 40.931,54.955  " fill="#000000" data-fill-palette-color="accent"></polygon><polygon points="30.82,53 29.22,61 34.78,61 33.18,53  " fill="#000000" data-fill-palette-color="accent"></polygon><path d="M51.98 45.016l-6.147-1.229-1.975 7.902-1.636 0.818 0.847 2.538L40.516 61H48V50h2v11h6V49.919C56 47.544 54.31 45.482 51.98 45.016z" fill="#000000" data-fill-palette-color="accent"></path><path d="M21.777 52.507l-1.636-0.818-1.975-7.902-6.147 1.229C9.69 45.482 8 47.544 8 49.919V61h6V50h2v11h7.484l-2.553-5.955L21.777 52.507z" fill="#000000" data-fill-palette-color="accent"></path><polygon points="38.722,42.364 37.329,42.085 33.569,45.845 37.553,48.5  " fill="#000000" data-fill-palette-color="accent"></polygon><polygon points="20.129,43.394 21.858,50.312 24.223,51.493 23.069,54.955 25.659,61 26.791,61 23.316,42.756  " fill="#000000" data-fill-palette-color="accent"></polygon><polygon points="26.853,50.633 28.024,56.781 28.975,52.025 28.374,49.619  " fill="#000000" data-fill-palette-color="accent"></polygon></g></svg></g></svg></g></svg></g><defs></defs></svg><rect width="395.52" height="43.48224956794614" fill="none" stroke="none" visibility="hidden"></rect></g></svg></g></svg>